{
	"asset":{
		"generator":"Khronos glTF Blender I/O v4.3.47",
		"version":"2.0"
	},
	"scene":0,
	"scenes":[
		{
			"name":"Scene",
			"nodes":[
				14
			]
		}
	],
	"nodes":[
		{
			"mesh":0,
			"name":"Circle.001_MatWheel_0"
		},
		{
			"children":[
				0
			],
			"name":"Circle.001",
			"translation":[
				128.3297576904297,
				165.83740234375,
				64.69442749023438
			]
		},
		{
			"mesh":1,
			"name":"Circle.002_MatWheel_0"
		},
		{
			"children":[
				2
			],
			"name":"Circle.002",
			"translation":[
				128.3297576904297,
				-165.16920471191406,
				64.69442749023438
			]
		},
		{
			"mesh":2,
			"name":"Circle.003_MatWheel_0"
		},
		{
			"children":[
				4
			],
			"name":"Circle.003",
			"translation":[
				-132.7371063232422,
				-165.16920471191406,
				64.69442749023438
			]
		},
		{
			"mesh":3,
			"name":"Circle.004_MatWheel_0"
		},
		{
			"children":[
				6
			],
			"name":"Circle.004",
			"translation":[
				-132.7371063232422,
				165.83740234375,
				64.69442749023438
			]
		},
		{
			"mesh":4,
			"name":"Plane_MatMain_0"
		},
		{
			"children":[
				8
			],
			"name":"Plane"
		},
		{
			"mesh":5,
			"name":"Plane.007_MatSec_0"
		},
		{
			"children":[
				10
			],
			"name":"Plane.007"
		},
		{
			"children":[
				1,
				3,
				5,
				7,
				9,
				11
			],
			"name":"RootNode"
		},
		{
			"children":[
				12
			],
			"name":"559b447ff0a84507b54a465ae048ca65.fbx",
			"rotation":[
				0.70710688829422,
				0,
				0,
				0.7071066498756409
			]
		},
		{
			"children":[
				13
			],
			"name":"Sketchfab_model",
			"rotation":[
				-0.70710688829422,
				0,
				0,
				0.7071066498756409
			],
			"scale":[
				0.0031940010376274586,
				0.003194001503288746,
				0.003194001503288746
			]
		}
	],
	"materials":[
		{
			"doubleSided":true,
			"name":"MatWheel",
			"normalTexture":{
				"index":0
			},
			"pbrMetallicRoughness":{
				"baseColorTexture":{
					"index":1
				},
				"metallicRoughnessTexture":{
					"index":2
				}
			}
		},
		{
			"doubleSided":true,
			"emissiveFactor":[
				1,
				1,
				1
			],
			"emissiveTexture":{
				"index":3
			},
			"name":"MatMain",
			"normalTexture":{
				"index":4
			},
			"pbrMetallicRoughness":{
				"baseColorTexture":{
					"index":5
				},
				"metallicRoughnessTexture":{
					"index":6
				}
			}
		},
		{
			"doubleSided":true,
			"emissiveFactor":[
				1,
				1,
				1
			],
			"emissiveTexture":{
				"index":7
			},
			"name":"MatSec",
			"pbrMetallicRoughness":{
				"baseColorTexture":{
					"index":8
				},
				"metallicRoughnessTexture":{
					"index":9
				}
			}
		}
	],
	"meshes":[
		{
			"name":"Circle.001_MatWheel_0",
			"primitives":[
				{
					"attributes":{
						"POSITION":0,
						"NORMAL":1,
						"TEXCOORD_0":2,
						"TEXCOORD_1":3,
						"TEXCOORD_2":4
					},
					"indices":5,
					"material":0
				}
			]
		},
		{
			"name":"Circle.002_MatWheel_0",
			"primitives":[
				{
					"attributes":{
						"POSITION":6,
						"NORMAL":7,
						"TEXCOORD_0":8,
						"TEXCOORD_1":9,
						"TEXCOORD_2":10
					},
					"indices":5,
					"material":0
				}
			]
		},
		{
			"name":"Circle.003_MatWheel_0",
			"primitives":[
				{
					"attributes":{
						"POSITION":11,
						"NORMAL":12,
						"TEXCOORD_0":13,
						"TEXCOORD_1":14,
						"TEXCOORD_2":15
					},
					"indices":16,
					"material":0
				}
			]
		},
		{
			"name":"Circle.004_MatWheel_0",
			"primitives":[
				{
					"attributes":{
						"POSITION":17,
						"NORMAL":18,
						"TEXCOORD_0":19,
						"TEXCOORD_1":20,
						"TEXCOORD_2":21
					},
					"indices":16,
					"material":0
				}
			]
		},
		{
			"name":"Plane_MatMain_0",
			"primitives":[
				{
					"attributes":{
						"POSITION":22,
						"NORMAL":23,
						"TEXCOORD_0":24,
						"TEXCOORD_1":25,
						"TEXCOORD_2":26,
						"TEXCOORD_3":27
					},
					"indices":28,
					"material":1
				}
			]
		},
		{
			"name":"Plane.007_MatSec_0",
			"primitives":[
				{
					"attributes":{
						"POSITION":29,
						"NORMAL":30,
						"TEXCOORD_0":31,
						"TEXCOORD_1":32,
						"TEXCOORD_2":33,
						"TEXCOORD_3":34
					},
					"indices":35,
					"material":2
				}
			]
		}
	],
	"textures":[
		{
			"sampler":0,
			"source":0
		},
		{
			"sampler":0,
			"source":1
		},
		{
			"sampler":0,
			"source":2
		},
		{
			"sampler":0,
			"source":3
		},
		{
			"sampler":0,
			"source":4
		},
		{
			"sampler":0,
			"source":5
		},
		{
			"sampler":0,
			"source":6
		},
		{
			"sampler":0,
			"source":7
		},
		{
			"sampler":0,
			"source":8
		},
		{
			"sampler":0,
			"source":9
		}
	],
	"images":[
		{
			"mimeType":"image/png",
			"name":"Image_6",
			"uri":"Image_6.png"
		},
		{
			"mimeType":"image/png",
			"name":"Image_4",
			"uri":"Image_4.png"
		},
		{
			"mimeType":"image/png",
			"name":"Image_5",
			"uri":"Image_5.png"
		},
		{
			"mimeType":"image/png",
			"name":"Image_2",
			"uri":"Image_2_tint.png"
		},
		{
			"mimeType":"image/png",
			"name":"Image_3",
			"uri":"Image_3.png"
		},
		{
			"mimeType":"image/png",
			"name":"Image_0",
			"uri":"Image_0_tint.png"
		},
		{
			"mimeType":"image/png",
			"name":"Image_1",
			"uri":"Image_1.png"
		},
		{
			"mimeType":"image/png",
			"name":"Image_9",
			"uri":"Image_9.png"
		},
		{
			"mimeType":"image/png",
			"name":"Image_7",
			"uri":"Image_7.png"
		},
		{
			"mimeType":"image/png",
			"name":"Image_8",
			"uri":"Image_8.png"
		}
	],
	"accessors":[
		{
			"bufferView":0,
			"componentType":5126,
			"count":1439,
			"max":[
				30.599712371826172,
				63.5635986328125,
				63.62882995605469
			],
			"min":[
				-40.61423110961914,
				-63.65326690673828,
				-63.58805465698242
			],
			"type":"VEC3"
		},
		{
			"bufferView":1,
			"componentType":5126,
			"count":1439,
			"type":"VEC3"
		},
		{
			"bufferView":2,
			"componentType":5126,
			"count":1439,
			"type":"VEC2"
		},
		{
			"bufferView":3,
			"componentType":5126,
			"count":1439,
			"type":"VEC2"
		},
		{
			"bufferView":4,
			"componentType":5126,
			"count":1439,
			"type":"VEC2"
		},
		{
			"bufferView":5,
			"componentType":5123,
			"count":5880,
			"type":"SCALAR"
		},
		{
			"bufferView":6,
			"componentType":5126,
			"count":1439,
			"max":[
				30.599712371826172,
				63.5635986328125,
				63.62882995605469
			],
			"min":[
				-40.61423110961914,
				-63.65326690673828,
				-63.58805465698242
			],
			"type":"VEC3"
		},
		{
			"bufferView":7,
			"componentType":5126,
			"count":1439,
			"type":"VEC3"
		},
		{
			"bufferView":8,
			"componentType":5126,
			"count":1439,
			"type":"VEC2"
		},
		{
			"bufferView":9,
			"componentType":5126,
			"count":1439,
			"type":"VEC2"
		},
		{
			"bufferView":10,
			"componentType":5126,
			"count":1439,
			"type":"VEC2"
		},
		{
			"bufferView":11,
			"componentType":5126,
			"count":1439,
			"max":[
				40.61423110961914,
				63.5635986328125,
				63.62882995605469
			],
			"min":[
				-30.599712371826172,
				-63.65326690673828,
				-63.58805465698242
			],
			"type":"VEC3"
		},
		{
			"bufferView":12,
			"componentType":5126,
			"count":1439,
			"type":"VEC3"
		},
		{
			"bufferView":13,
			"componentType":5126,
			"count":1439,
			"type":"VEC2"
		},
		{
			"bufferView":14,
			"componentType":5126,
			"count":1439,
			"type":"VEC2"
		},
		{
			"bufferView":15,
			"componentType":5126,
			"count":1439,
			"type":"VEC2"
		},
		{
			"bufferView":16,
			"componentType":5123,
			"count":5880,
			"type":"SCALAR"
		},
		{
			"bufferView":17,
			"componentType":5126,
			"count":1439,
			"max":[
				40.61423110961914,
				63.5635986328125,
				63.62882995605469
			],
			"min":[
				-30.599712371826172,
				-63.65326690673828,
				-63.58805465698242
			],
			"type":"VEC3"
		},
		{
			"bufferView":18,
			"componentType":5126,
			"count":1439,
			"type":"VEC3"
		},
		{
			"bufferView":19,
			"componentType":5126,
			"count":1439,
			"type":"VEC2"
		},
		{
			"bufferView":20,
			"componentType":5126,
			"count":1439,
			"type":"VEC2"
		},
		{
			"bufferView":21,
			"componentType":5126,
			"count":1439,
			"type":"VEC2"
		},
		{
			"bufferView":22,
			"componentType":5126,
			"count":5487,
			"max":[
				172.56607055664062,
				328.9710388183594,
				234.7860870361328
			],
			"min":[
				-172.56607055664062,
				-300.3138122558594,
				13.694214820861816
			],
			"type":"VEC3"
		},
		{
			"bufferView":23,
			"componentType":5126,
			"count":5487,
			"type":"VEC3"
		},
		{
			"bufferView":24,
			"componentType":5126,
			"count":5487,
			"type":"VEC2"
		},
		{
			"bufferView":25,
			"componentType":5126,
			"count":5487,
			"type":"VEC2"
		},
		{
			"bufferView":26,
			"componentType":5126,
			"count":5487,
			"type":"VEC2"
		},
		{
			"bufferView":27,
			"componentType":5126,
			"count":5487,
			"type":"VEC2"
		},
		{
			"bufferView":28,
			"componentType":5123,
			"count":14172,
			"type":"SCALAR"
		},
		{
			"bufferView":29,
			"componentType":5126,
			"count":1054,
			"max":[
				134.82064819335938,
				224.9077606201172,
				223.95028686523438
			],
			"min":[
				-134.82064819335938,
				-294.8535461425781,
				65.48650360107422
			],
			"type":"VEC3"
		},
		{
			"bufferView":30,
			"componentType":5126,
			"count":1054,
			"type":"VEC3"
		},
		{
			"bufferView":31,
			"componentType":5126,
			"count":1054,
			"type":"VEC2"
		},
		{
			"bufferView":32,
			"componentType":5126,
			"count":1054,
			"type":"VEC2"
		},
		{
			"bufferView":33,
			"componentType":5126,
			"count":1054,
			"type":"VEC2"
		},
		{
			"bufferView":34,
			"componentType":5126,
			"count":1054,
			"type":"VEC2"
		},
		{
			"bufferView":35,
			"componentType":5123,
			"count":2796,
			"type":"SCALAR"
		}
	],
	"bufferViews":[
		{
			"buffer":0,
			"byteLength":17268,
			"byteOffset":0,
			"target":34962
		},
		{
			"buffer":0,
			"byteLength":17268,
			"byteOffset":17268,
			"target":34962
		},
		{
			"buffer":0,
			"byteLength":11512,
			"byteOffset":34536,
			"target":34962
		},
		{
			"buffer":0,
			"byteLength":11512,
			"byteOffset":46048,
			"target":34962
		},
		{
			"buffer":0,
			"byteLength":11512,
			"byteOffset":57560,
			"target":34962
		},
		{
			"buffer":0,
			"byteLength":11760,
			"byteOffset":69072,
			"target":34963
		},
		{
			"buffer":0,
			"byteLength":17268,
			"byteOffset":80832,
			"target":34962
		},
		{
			"buffer":0,
			"byteLength":17268,
			"byteOffset":98100,
			"target":34962
		},
		{
			"buffer":0,
			"byteLength":11512,
			"byteOffset":115368,
			"target":34962
		},
		{
			"buffer":0,
			"byteLength":11512,
			"byteOffset":126880,
			"target":34962
		},
		{
			"buffer":0,
			"byteLength":11512,
			"byteOffset":138392,
			"target":34962
		},
		{
			"buffer":0,
			"byteLength":17268,
			"byteOffset":149904,
			"target":34962
		},
		{
			"buffer":0,
			"byteLength":17268,
			"byteOffset":167172,
			"target":34962
		},
		{
			"buffer":0,
			"byteLength":11512,
			"byteOffset":184440,
			"target":34962
		},
		{
			"buffer":0,
			"byteLength":11512,
			"byteOffset":195952,
			"target":34962
		},
		{
			"buffer":0,
			"byteLength":11512,
			"byteOffset":207464,
			"target":34962
		},
		{
			"buffer":0,
			"byteLength":11760,
			"byteOffset":218976,
			"target":34963
		},
		{
			"buffer":0,
			"byteLength":17268,
			"byteOffset":230736,
			"target":34962
		},
		{
			"buffer":0,
			"byteLength":17268,
			"byteOffset":248004,
			"target":34962
		},
		{
			"buffer":0,
			"byteLength":11512,
			"byteOffset":265272,
			"target":34962
		},
		{
			"buffer":0,
			"byteLength":11512,
			"byteOffset":276784,
			"target":34962
		},
		{
			"buffer":0,
			"byteLength":11512,
			"byteOffset":288296,
			"target":34962
		},
		{
			"buffer":0,
			"byteLength":65844,
			"byteOffset":299808,
			"target":34962
		},
		{
			"buffer":0,
			"byteLength":65844,
			"byteOffset":365652,
			"target":34962
		},
		{
			"buffer":0,
			"byteLength":43896,
			"byteOffset":431496,
			"target":34962
		},
		{
			"buffer":0,
			"byteLength":43896,
			"byteOffset":475392,
			"target":34962
		},
		{
			"buffer":0,
			"byteLength":43896,
			"byteOffset":519288,
			"target":34962
		},
		{
			"buffer":0,
			"byteLength":43896,
			"byteOffset":563184,
			"target":34962
		},
		{
			"buffer":0,
			"byteLength":28344,
			"byteOffset":607080,
			"target":34963
		},
		{
			"buffer":0,
			"byteLength":12648,
			"byteOffset":635424,
			"target":34962
		},
		{
			"buffer":0,
			"byteLength":12648,
			"byteOffset":648072,
			"target":34962
		},
		{
			"buffer":0,
			"byteLength":8432,
			"byteOffset":660720,
			"target":34962
		},
		{
			"buffer":0,
			"byteLength":8432,
			"byteOffset":669152,
			"target":34962
		},
		{
			"buffer":0,
			"byteLength":8432,
			"byteOffset":677584,
			"target":34962
		},
		{
			"buffer":0,
			"byteLength":8432,
			"byteOffset":686016,
			"target":34962
		},
		{
			"buffer":0,
			"byteLength":5592,
			"byteOffset":694448,
			"target":34963
		}
	],
	"samplers":[
		{
			"magFilter":9729,
			"minFilter":9987
		}
	],
	"buffers":[
		{
			"byteLength":700040,
			"uri":"car.bin"
		}
	]
}
