<?xml version="1.0" encoding="UTF-8" standalone="no"?>
<!-- Created with Inkscape (http://www.inkscape.org/) -->

<svg
   width="256"
   height="8"
   viewBox="0 0 256 8"
   version="1.1"
   id="svg5"
   xml:space="preserve"
   inkscape:version="1.4.4 (1:1.4.4+202605061436+dcaf3e7d9e)"
   sodipodi:docname="minigun_shot.svg"
   inkscape:export-filename="../../assets/sprites/minigun_shot.tint.png"
   inkscape:export-xdpi="96"
   inkscape:export-ydpi="96"
   xmlns:inkscape="http://www.inkscape.org/namespaces/inkscape"
   xmlns:sodipodi="http://sodipodi.sourceforge.net/DTD/sodipodi-0.dtd"
   xmlns:xlink="http://www.w3.org/1999/xlink"
   xmlns="http://www.w3.org/2000/svg"
   xmlns:svg="http://www.w3.org/2000/svg"><sodipodi:namedview
     id="namedview7"
     pagecolor="#ffffff"
     bordercolor="#000000"
     borderopacity="0.25"
     inkscape:showpageshadow="2"
     inkscape:pageopacity="0.0"
     inkscape:pagecheckerboard="0"
     inkscape:deskcolor="#d1d1d1"
     inkscape:document-units="mm"
     showgrid="true"
     inkscape:zoom="4.2256139"
     inkscape:cx="132.76177"
     inkscape:cy="-146.36926"
     inkscape:window-width="2880"
     inkscape:window-height="2482"
     inkscape:window-x="1920"
     inkscape:window-y="0"
     inkscape:window-maximized="1"
     inkscape:current-layer="layer1"><inkscape:grid
       id="grid1"
       units="mm"
       originx="0"
       originy="0"
       spacingx="1"
       spacingy="1"
       empcolor="#0099e5"
       empopacity="0.30196078"
       color="#0099e5"
       opacity="0.14901961"
       empspacing="5"
       enabled="true"
       visible="true" /></sodipodi:namedview><defs
     id="defs2"><linearGradient
       inkscape:collect="always"
       id="linearGradient1655"><stop
         style="stop-color:#00ff00;stop-opacity:1;"
         offset="0"
         id="stop1651" /><stop
         style="stop-color:#0000ff;stop-opacity:0;"
         offset="1"
         id="stop1653" /></linearGradient><linearGradient
       inkscape:collect="always"
       xlink:href="#linearGradient1655"
       id="linearGradient1657"
       x1="-1.2638537e-08"
       y1="4"
       x2="220.10925"
       y2="4"
       gradientUnits="userSpaceOnUse"
       gradientTransform="matrix(1,0,0,1.4076508,-220.30278,-1.6308567)" /></defs><g
     inkscape:label="Layer 1"
     inkscape:groupmode="layer"
     id="layer1"><path
       id="rect234"
       style="opacity:0.75;fill:url(#linearGradient1657);stroke-width:1.06667;stroke-linecap:round;stroke-linejoin:round"
       transform="scale(-1,1)"
       d="M -238.15131,2.0001274 C -229.94084,0 -80,3 0,2.8398241 v 2.171935 C -80,5 -230,8 -238.15145,6.0001266 Z"
       sodipodi:nodetypes="ccccc" /><path
       style="opacity:1;fill:#ff0000;stroke:none;stroke-width:1.06667;stroke-linecap:round;stroke-linejoin:round"
       d="m 238.15131,2.0001274 h 0.4 l 0.0911,0.4784605 h 0.32273 l 0.0855,-0.4490104 h 9.18367 l 0.75086,0.2832088 h 2.03539 v 0.095083 c 3.2111,0.059719 3.57754,0.665766 4.97941,1.5921311 -1.40188,0.9263651 -1.76831,1.5324101 -4.97941,1.5921311 v 0.095083 h -2.03539 l -0.75087,0.2832088 h -9.18366 l -0.0855,-0.4490104 h -0.32273 l -0.0911,0.4784606 h -0.4"
       id="path527"
       sodipodi:nodetypes="ccccccccccccccccccc" /><path
       style="opacity:1;fill:#ff0000;fill-opacity:1;stroke:none;stroke-width:1.06667;stroke-linecap:round;stroke-linejoin:round"
       d="m 238.15131,3.1244187 h 0.4 l 0.0911,0.2094788 h 0.32273 l 0.0855,-0.1965854 h 9.18367 l 0.75086,0.1239943 h 2.03539 v 0.041632 c 3.2111,0.026147 3.57754,0.2914844 4.97941,0.6970644 -1.40188,0.4055801 -1.76831,0.6709173 -4.97941,0.6970645 v 0.041631 h -2.03539 l -0.75087,0.1239943 h -9.18366 l -0.0855,-0.1965848 h -0.32273 l -0.0911,0.2094789 h -0.4"
       id="path687"
       sodipodi:nodetypes="ccccccccccccccccccc" /><path
       id="path965"
       style="opacity:1;fill:#550000;stroke:none;stroke-width:1.06667;stroke-linecap:round;stroke-linejoin:round"
       d="M 255.72168,3.808922 C 255.81038,3.888542 255.90263,3.9544083 256,4 255.89377,3.9298 255.81772,3.8753455 255.72168,3.808922 Z M 256,4 c -1.40187,0.6563277 -1.76839,1.0862827 -4.97949,1.1285945 v 0.067356 h -2.03515 l -0.75098,0.2007008 h -9.18359 l -0.0859,-0.3189209 h -0.32226 l -0.0908,0.3395408 h -0.40038 v 0.5828554 h 0.40038 l 0.0908,-0.4783816 h 0.32226 l 0.0859,0.448139 h 9.18359 l 0.75098,-0.28318 h 2.03515 V 5.591852 C 254.23161,5.532133 254.59813,4.9263612 256,3.9999975 Z" /></g></svg>
