{
    "asset" : {
        "generator" : "Khronos glTF Blender I/O v1.1.46",
        "version" : "2.0"
    },
    "scene" : 0,
    "scenes" : [
        {
            "name" : "Scene",
            "nodes" : [
                0,
                1,
                2,
                3,
                4,
                5,
                6
            ]
        }
    ],
    "nodes" : [
        {
            "mesh" : 0,
            "name" : "body",
            "rotation" : [
                0,
                0.07199230045080185,
                0,
                0.9974051713943481
            ],
            "scale" : [
                0.5982990860939026,
                0.2527473270893097,
                0.14609919488430023
            ],
            "translation" : [
                -0.157570481300354,
                0,
                0.09109747409820557
            ]
        },
        {
            "mesh" : 1,
            "name" : "bumper",
            "rotation" : [
                0,
                0,
                0.7071067690849304,
                0.7071068286895752
            ],
            "scale" : [
                1.7354356050491333,
                1.7354356050491333,
                1.7354356050491333
            ],
            "translation" : [
                0.5039348602294922,
                0.3838222622871399,
                0.04454536363482475
            ]
        },
        {
            "mesh" : 2,
            "name" : "halo",
            "rotation" : [
                0,
                0,
                0.7071067690849304,
                0.7071068286895752
            ],
            "scale" : [
                1.7579081058502197,
                1.7579081058502197,
                1.7579081058502197
            ],
            "translation" : [
                0.5003547668457031,
                0.3894103467464447,
                0
            ]
        },
        {
            "mesh" : 3,
            "name" : "nozzle",
            "rotation" : [
                0,
                0.7071067690849304,
                0,
                0.7071068286895752
            ],
            "scale" : [
                0.21304020285606384,
                0.30237850546836853,
                0.24553094804286957
            ],
            "translation" : [
                -0.6908713579177856,
                0,
                0.09887556731700897
            ]
        },
        {
            "name" : "Null",
            "translation" : [
                0.23210179805755615,
                0,
                0
            ]
        },
        {
            "mesh" : 4,
            "name" : "window",
            "rotation" : [
                0,
                -0.004810210317373276,
                0,
                0.9999884366989136
            ],
            "scale" : [
                0.16544084250926971,
                0.06359028071165085,
                0.10925948619842529
            ],
            "translation" : [
                0.014294564723968506,
                0,
                0.2552298903465271
            ]
        },
        {
            "mesh" : 5,
            "name" : "wings",
            "rotation" : [
                0.9217249751091003,
                -0.026119893416762352,
                -0.06305898725986481,
                0.38179096579551697
            ],
            "scale" : [
                0.6238767504692078,
                0.3546927869319916,
                0.02037472277879715
            ],
            "translation" : [
                -0.24344384670257568,
                -0.17913195490837097,
                0.16522714495658875
            ]
        }
    ],
    "materials" : [
        {
            "doubleSided" : true,
            "emissiveFactor" : [
                0,
                0,
                0
            ],
            "name" : "bodymat",
            "pbrMetallicRoughness" : {
                "baseColorFactor" : [
                    1,
                    0,
                    0,
                    1
                ],
                "metallicFactor" : 0.10000000149011612,
                "roughnessFactor" : 0.10000000149011612
            }
        },
        {
            "doubleSided" : true,
            "emissiveFactor" : [
                1,
                0,
                0
            ],
            "name" : "halomat",
            "pbrMetallicRoughness" : {
                "baseColorFactor" : [
                    0,
                    0,
                    0,
                    1
                ],
                "metallicFactor" : 0,
                "roughnessFactor" : 1
            }
        },
        {
            "doubleSided" : true,
            "emissiveFactor" : [
                0,
                0,
                0
            ],
            "name" : "nozzlemat",
            "pbrMetallicRoughness" : {
                "baseColorFactor" : [
                    0.10000000149011612,
                    0.10000000149011612,
                    0.10000000149011612,
                    1
                ],
                "metallicFactor" : 0.5,
                "roughnessFactor" : 0.5
            }
        },
        {
            "doubleSided" : true,
            "emissiveFactor" : [
                0,
                0,
                0
            ],
            "name" : "windowmat",
            "pbrMetallicRoughness" : {
                "baseColorFactor" : [
                    0,
                    0,
                    0,
                    1
                ],
                "metallicFactor" : 0.20000000298023224,
                "roughnessFactor" : 0.10000000149011612
            }
        },
        {
            "doubleSided" : true,
            "emissiveFactor" : [
                0,
                0,
                0
            ],
            "name" : "wingmat",
            "pbrMetallicRoughness" : {
                "baseColorFactor" : [
                    1,
                    1,
                    1,
                    1
                ],
                "metallicFactor" : 0,
                "roughnessFactor" : 0.5
            }
        }
    ],
    "meshes" : [
        {
            "name" : "body",
            "primitives" : [
                {
                    "attributes" : {
                        "POSITION" : 0,
                        "NORMAL" : 1
                    },
                    "indices" : 2,
                    "material" : 0
                }
            ]
        },
        {
            "name" : "bumper",
            "primitives" : [
                {
                    "attributes" : {
                        "POSITION" : 3,
                        "NORMAL" : 4
                    },
                    "indices" : 5,
                    "material" : 0
                }
            ]
        },
        {
            "name" : "halo",
            "primitives" : [
                {
                    "attributes" : {
                        "POSITION" : 6,
                        "NORMAL" : 7
                    },
                    "indices" : 8,
                    "material" : 1
                }
            ]
        },
        {
            "name" : "nozzle",
            "primitives" : [
                {
                    "attributes" : {
                        "POSITION" : 9,
                        "NORMAL" : 10
                    },
                    "indices" : 11,
                    "material" : 2
                }
            ]
        },
        {
            "name" : "window",
            "primitives" : [
                {
                    "attributes" : {
                        "POSITION" : 12,
                        "NORMAL" : 13
                    },
                    "indices" : 14,
                    "material" : 3
                }
            ]
        },
        {
            "name" : "wings",
            "primitives" : [
                {
                    "attributes" : {
                        "POSITION" : 15,
                        "NORMAL" : 16
                    },
                    "indices" : 17,
                    "material" : 4
                }
            ]
        }
    ],
    "accessors" : [
        {
            "bufferView" : 0,
            "componentType" : 5126,
            "count" : 224,
            "max" : [
                0.9526433944702148,
                0.9527144432067871,
                0.9535000324249268
            ],
            "min" : [
                -0.9526454210281372,
                -0.9527166485786438,
                -0.9535025358200073
            ],
            "type" : "VEC3"
        },
        {
            "bufferView" : 1,
            "componentType" : 5126,
            "count" : 224,
            "type" : "VEC3"
        },
        {
            "bufferView" : 2,
            "componentType" : 5123,
            "count" : 1332,
            "type" : "SCALAR"
        },
        {
            "bufferView" : 3,
            "componentType" : 5126,
            "count" : 440,
            "max" : [
                0.32728439569473267,
                0.7582886815071106,
                0.07082460075616837
            ],
            "min" : [
                -0.7696198225021362,
                -0.23551782965660095,
                -0.034220486879348755
            ],
            "type" : "VEC3"
        },
        {
            "bufferView" : 4,
            "componentType" : 5126,
            "count" : 440,
            "type" : "VEC3"
        },
        {
            "bufferView" : 5,
            "componentType" : 5123,
            "count" : 1260,
            "type" : "SCALAR"
        },
        {
            "bufferView" : 6,
            "componentType" : 5126,
            "count" : 119,
            "max" : [
                0.3934340476989746,
                0.9134904146194458,
                0
            ],
            "min" : [
                -0.8364723920822144,
                -0.43906617164611816,
                0
            ],
            "type" : "VEC3"
        },
        {
            "bufferView" : 7,
            "componentType" : 5126,
            "count" : 119,
            "type" : "VEC3"
        },
        {
            "bufferView" : 8,
            "componentType" : 5123,
            "count" : 276,
            "type" : "SCALAR"
        },
        {
            "bufferView" : 9,
            "componentType" : 5126,
            "count" : 100,
            "max" : [
                0.9510565400123596,
                1,
                1
            ],
            "min" : [
                -0.9510564804077148,
                -1,
                -0.6784459352493286
            ],
            "type" : "VEC3"
        },
        {
            "bufferView" : 10,
            "componentType" : 5126,
            "count" : 100,
            "type" : "VEC3"
        },
        {
            "bufferView" : 11,
            "componentType" : 5123,
            "count" : 114,
            "type" : "SCALAR"
        },
        {
            "bufferView" : 12,
            "componentType" : 5126,
            "count" : 28,
            "max" : [
                0.951817512512207,
                3.3629672527313232,
                0.14813393354415894
            ],
            "min" : [
                -1.682177186012268,
                -3.3629672527313232,
                -0.9671790599822998
            ],
            "type" : "VEC3"
        },
        {
            "bufferView" : 13,
            "componentType" : 5126,
            "count" : 28,
            "type" : "VEC3"
        },
        {
            "bufferView" : 14,
            "componentType" : 5123,
            "count" : 36,
            "type" : "SCALAR"
        },
        {
            "bufferView" : 15,
            "componentType" : 5126,
            "count" : 32,
            "max" : [
                0.7424176931381226,
                0.7904820442199707,
                3.3185575008392334
            ],
            "min" : [
                -0.8253642916679382,
                -0.9489794969558716,
                -22.96674156188965
            ],
            "type" : "VEC3"
        },
        {
            "bufferView" : 16,
            "componentType" : 5126,
            "count" : 32,
            "type" : "VEC3"
        },
        {
            "bufferView" : 17,
            "componentType" : 5123,
            "count" : 36,
            "type" : "SCALAR"
        }
    ],
    "bufferViews" : [
        {
            "buffer" : 0,
            "byteLength" : 2688,
            "byteOffset" : 0
        },
        {
            "buffer" : 0,
            "byteLength" : 2688,
            "byteOffset" : 2688
        },
        {
            "buffer" : 0,
            "byteLength" : 2664,
            "byteOffset" : 5376
        },
        {
            "buffer" : 0,
            "byteLength" : 5280,
            "byteOffset" : 8040
        },
        {
            "buffer" : 0,
            "byteLength" : 5280,
            "byteOffset" : 13320
        },
        {
            "buffer" : 0,
            "byteLength" : 2520,
            "byteOffset" : 18600
        },
        {
            "buffer" : 0,
            "byteLength" : 1428,
            "byteOffset" : 21120
        },
        {
            "buffer" : 0,
            "byteLength" : 1428,
            "byteOffset" : 22548
        },
        {
            "buffer" : 0,
            "byteLength" : 552,
            "byteOffset" : 23976
        },
        {
            "buffer" : 0,
            "byteLength" : 1200,
            "byteOffset" : 24528
        },
        {
            "buffer" : 0,
            "byteLength" : 1200,
            "byteOffset" : 25728
        },
        {
            "buffer" : 0,
            "byteLength" : 228,
            "byteOffset" : 26928
        },
        {
            "buffer" : 0,
            "byteLength" : 336,
            "byteOffset" : 27156
        },
        {
            "buffer" : 0,
            "byteLength" : 336,
            "byteOffset" : 27492
        },
        {
            "buffer" : 0,
            "byteLength" : 72,
            "byteOffset" : 27828
        },
        {
            "buffer" : 0,
            "byteLength" : 384,
            "byteOffset" : 27900
        },
        {
            "buffer" : 0,
            "byteLength" : 384,
            "byteOffset" : 28284
        },
        {
            "buffer" : 0,
            "byteLength" : 72,
            "byteOffset" : 28668
        }
    ],
    "buffers" : [
        {
            "byteLength" : 28740,
            "uri" : "data:application/octet-stream;base64,"
        }
    ]
}
