{
	"asset":{
		"generator":"Khronos glTF Blender I/O v4.3.47",
		"version":"2.0"
	},
	"scene":0,
	"scenes":[
		{
			"name":"Scene",
			"nodes":[
				7
			]
		}
	],
	"nodes":[
		{
			"mesh":0,
			"name":"Nave1_High_03 - Default Slot #1_0",
			"translation":[
				0,
				-0.0004977001226507127,
				2.6428868295624852e-05
			]
		},
		{
			"mesh":1,
			"name":"Nave1_High_03 - Default Slot #2_0",
			"translation":[
				0,
				-0.0004977001226507127,
				2.6428868295624852e-05
			]
		},
		{
			"mesh":2,
			"name":"Nave1_High_03 - Default Slot #3_0",
			"translation":[
				0,
				-0.0004977001226507127,
				2.6428868295624852e-05
			]
		},
		{
			"children":[
				0,
				1,
				2
			],
			"name":"Object_4",
			"translation":[
				0,
				4631.583984375,
				-215.47894287109375
			]
		},
		{
			"children":[
				3
			],
			"name":"Nave1_High",
			"scale":[
				0.11289099603891373,
				0.11289100348949432,
				0.11289100348949432
			]
		},
		{
			"children":[
				4
			],
			"name":"RootNode"
		},
		{
			"children":[
				5
			],
			"name":"02655ecb7d59492ca0c564d47d065701.fbx",
			"rotation":[
				0.70710688829422,
				0,
				0,
				0.7071066498756409
			]
		},
		{
			"children":[
				6
			],
			"name":"Sketchfab_model",
			"rotation":[
				-0.70710688829422,
				0,
				0,
				0.7071066498756409
			],
			"scale":[
				0.00454066414386034,
				0.004540664609521627,
				0.004540664609521627
			]
		}
	],
	"materials":[
		{
			"doubleSided":true,
			"name":"03_-_Default_Slot_1",
			"normalTexture":{
				"index":0
			},
			"occlusionTexture":{
				"index":1
			},
			"pbrMetallicRoughness":{
				"baseColorTexture":{
					"index":2
				},
				"metallicRoughnessTexture":{
					"index":1
				}
			}
		},
		{
			"doubleSided":true,
			"name":"03_-_Default_Slot_2",
			"normalTexture":{
				"index":3
			},
			"occlusionTexture":{
				"index":4
			},
			"pbrMetallicRoughness":{
				"baseColorTexture":{
					"index":5
				},
				"metallicRoughnessTexture":{
					"index":4
				}
			}
		},
		{
			"doubleSided":true,
			"name":"03_-_Default_Slot_3",
			"normalTexture":{
				"index":6
			},
			"occlusionTexture":{
				"index":7
			},
			"pbrMetallicRoughness":{
				"baseColorTexture":{
					"index":8
				},
				"metallicRoughnessTexture":{
					"index":7
				}
			}
		}
	],
	"meshes":[
		{
			"name":"Nave1_High_03 - Default Slot #1_0",
			"primitives":[
				{
					"attributes":{
						"POSITION":0,
						"NORMAL":1,
						"TEXCOORD_0":2
					},
					"indices":3,
					"material":0
				}
			]
		},
		{
			"name":"Nave1_High_03 - Default Slot #2_0",
			"primitives":[
				{
					"attributes":{
						"POSITION":4,
						"NORMAL":5,
						"TEXCOORD_0":6
					},
					"indices":7,
					"material":1
				}
			]
		},
		{
			"name":"Nave1_High_03 - Default Slot #3_0",
			"primitives":[
				{
					"attributes":{
						"POSITION":8,
						"NORMAL":9,
						"TEXCOORD_0":10
					},
					"indices":11,
					"material":2
				}
			]
		}
	],
	"textures":[
		{
			"sampler":0,
			"source":0
		},
		{
			"sampler":0,
			"source":1
		},
		{
			"sampler":0,
			"source":2
		},
		{
			"sampler":0,
			"source":3
		},
		{
			"sampler":0,
			"source":4
		},
		{
			"sampler":0,
			"source":5
		},
		{
			"sampler":0,
			"source":6
		},
		{
			"sampler":0,
			"source":7
		},
		{
			"sampler":0,
			"source":8
		}
	],
	"images":[
		{
			"mimeType":"image/png",
			"name":"Image_8",
			"uri":"Image_8.png"
		},
		{
			"mimeType":"image/png",
			"name":"Image_7",
			"uri":"Image_7.png"
		},
		{
			"mimeType":"image/jpeg",
			"name":"Image_6",
			"uri":"Image_6.jpg"
		},
		{
			"mimeType":"image/png",
			"name":"Image_2",
			"uri":"Image_2.png"
		},
		{
			"mimeType":"image/png",
			"name":"Image_1",
			"uri":"Image_1.png"
		},
		{
			"mimeType":"image/jpeg",
			"name":"Image_0",
			"uri":"Image_0.jpg"
		},
		{
			"mimeType":"image/png",
			"name":"Image_5",
			"uri":"Image_5.png"
		},
		{
			"mimeType":"image/png",
			"name":"Image_4",
			"uri":"Image_4.png"
		},
		{
			"mimeType":"image/jpeg",
			"name":"Image_3",
			"uri":"Image_3.jpg"
		}
	],
	"accessors":[
		{
			"bufferView":0,
			"componentType":5126,
			"count":4685,
			"max":[
				769.5057373046875,
				-3750.04736328125,
				847.4117431640625
			],
			"min":[
				-1856.980224609375,
				-5513.1201171875,
				-134.07122802734375
			],
			"type":"VEC3"
		},
		{
			"bufferView":1,
			"componentType":5126,
			"count":4685,
			"type":"VEC3"
		},
		{
			"bufferView":2,
			"componentType":5126,
			"count":4685,
			"type":"VEC2"
		},
		{
			"bufferView":3,
			"componentType":5123,
			"count":11790,
			"type":"SCALAR"
		},
		{
			"bufferView":4,
			"componentType":5126,
			"count":813,
			"max":[
				1314.7015380859375,
				-3493.83984375,
				824.2193603515625
			],
			"min":[
				-1829.3216552734375,
				-5769.328125,
				-147.86410522460938
			],
			"type":"VEC3"
		},
		{
			"bufferView":5,
			"componentType":5126,
			"count":813,
			"type":"VEC3"
		},
		{
			"bufferView":6,
			"componentType":5126,
			"count":813,
			"type":"VEC2"
		},
		{
			"bufferView":7,
			"componentType":5123,
			"count":2106,
			"type":"SCALAR"
		},
		{
			"bufferView":8,
			"componentType":5126,
			"count":730,
			"max":[
				1947.4075927734375,
				-2894.85595703125,
				1013.3984375
			],
			"min":[
				-1947.4075927734375,
				-6368.31201171875,
				-338.4373779296875
			],
			"type":"VEC3"
		},
		{
			"bufferView":9,
			"componentType":5126,
			"count":730,
			"type":"VEC3"
		},
		{
			"bufferView":10,
			"componentType":5126,
			"count":730,
			"type":"VEC2"
		},
		{
			"bufferView":11,
			"componentType":5123,
			"count":2034,
			"type":"SCALAR"
		}
	],
	"bufferViews":[
		{
			"buffer":0,
			"byteLength":56220,
			"byteOffset":0,
			"target":34962
		},
		{
			"buffer":0,
			"byteLength":56220,
			"byteOffset":56220,
			"target":34962
		},
		{
			"buffer":0,
			"byteLength":37480,
			"byteOffset":112440,
			"target":34962
		},
		{
			"buffer":0,
			"byteLength":23580,
			"byteOffset":149920,
			"target":34963
		},
		{
			"buffer":0,
			"byteLength":9756,
			"byteOffset":173500,
			"target":34962
		},
		{
			"buffer":0,
			"byteLength":9756,
			"byteOffset":183256,
			"target":34962
		},
		{
			"buffer":0,
			"byteLength":6504,
			"byteOffset":193012,
			"target":34962
		},
		{
			"buffer":0,
			"byteLength":4212,
			"byteOffset":199516,
			"target":34963
		},
		{
			"buffer":0,
			"byteLength":8760,
			"byteOffset":203728,
			"target":34962
		},
		{
			"buffer":0,
			"byteLength":8760,
			"byteOffset":212488,
			"target":34962
		},
		{
			"buffer":0,
			"byteLength":5840,
			"byteOffset":221248,
			"target":34962
		},
		{
			"buffer":0,
			"byteLength":4068,
			"byteOffset":227088,
			"target":34963
		}
	],
	"samplers":[
		{
			"magFilter":9729,
			"minFilter":9987
		}
	],
	"buffers":[
		{
			"byteLength":231156,
			"uri":"glider.bin"
		}
	]
}
