{
    "asset" : {
        "generator" : "Khronos glTF Blender I/O v1.1.46",
        "version" : "2.0"
    },
    "scene" : 0,
    "scenes" : [
        {
            "name" : "Scene",
            "nodes" : [
                0
            ]
        }
    ],
    "nodes" : [
        {
            "mesh" : 0,
            "name" : "Torus.002"
        }
    ],
    "materials" : [
        {
            "doubleSided" : true,
            "emissiveFactor" : [
                0,
                0,
                0
            ],
            "name" : "Material.002",
            "pbrMetallicRoughness" : {
                "baseColorFactor" : [
                    0.39613986015319824,
                    0.7799848914146423,
                    1,
                    1
                ],
                "metallicFactor" : 1,
                "roughnessFactor" : 0.25
            }
        }
    ],
    "meshes" : [
        {
            "name" : "Torus.002",
            "primitives" : [
                {
                    "attributes" : {
                        "POSITION" : 0,
                        "NORMAL" : 1,
                        "TEXCOORD_0" : 2
                    },
                    "indices" : 3,
                    "material" : 0
                }
            ]
        }
    ],
    "accessors" : [
        {
            "bufferView" : 0,
            "componentType" : 5126,
            "count" : 31097,
            "max" : [
                0.8233968615531921,
                0.7470028400421143,
                0.7827926874160767
            ],
            "min" : [
                -1.4810819625854492,
                -1.652228832244873,
                -0.7827928066253662
            ],
            "type" : "VEC3"
        },
        {
            "bufferView" : 1,
            "componentType" : 5126,
            "count" : 31097,
            "type" : "VEC3"
        },
        {
            "bufferView" : 2,
            "componentType" : 5126,
            "count" : 31097,
            "type" : "VEC2"
        },
        {
            "bufferView" : 3,
            "componentType" : 5123,
            "count" : 184320,
            "type" : "SCALAR"
        }
    ],
    "bufferViews" : [
        {
            "buffer" : 0,
            "byteLength" : 373164,
            "byteOffset" : 0
        },
        {
            "buffer" : 0,
            "byteLength" : 373164,
            "byteOffset" : 373164
        },
        {
            "buffer" : 0,
            "byteLength" : 248776,
            "byteOffset" : 746328
        },
        {
            "buffer" : 0,
            "byteLength" : 368640,
            "byteOffset" : 995104
        }
    ],
    "buffers" : [
        {
            "byteLength" : 1363744,
            "uri" : "data:application/octet-stream;base64,"
        }
    ]
}
